<mxfile host="Electron" modified="2025-06-10T12:30:55.470Z" agent="Mozilla/5.0 (Windows NT 10.0; Win64; x64) AppleWebKit/537.36 (KHTML, like Gecko) draw.io/23.1.5 Chrome/120.0.6099.109 Electron/28.1.0 Safari/537.36" etag="NRF8Xl-PIvLF3VRkDsQz" version="23.1.5" type="device">
  <diagram name="Seite-1" id="14pEmhcMo-vlKdOaXNmr">
    <mxGraphModel dx="1434" dy="964" grid="1" gridSize="10" guides="1" tooltips="1" connect="1" arrows="1" fold="1" page="1" pageScale="1" pageWidth="1169" pageHeight="827" math="0" shadow="0">
      <root>
        <mxCell id="0" />
        <mxCell id="1" parent="0" />
        <mxCell id="QdIKASUK-jV8swbsfsCr-9" style="edgeStyle=orthogonalEdgeStyle;rounded=0;orthogonalLoop=1;jettySize=auto;html=1;" edge="1" parent="1" source="QdIKASUK-jV8swbsfsCr-1" target="QdIKASUK-jV8swbsfsCr-5">
          <mxGeometry relative="1" as="geometry" />
        </mxCell>
        <mxCell id="QdIKASUK-jV8swbsfsCr-13" style="rounded=0;orthogonalLoop=1;jettySize=auto;html=1;edgeStyle=orthogonalEdgeStyle;exitX=0.5;exitY=1;exitDx=0;exitDy=0;exitPerimeter=0;entryX=0;entryY=0.5;entryDx=0;entryDy=0;entryPerimeter=0;" edge="1" parent="1" source="QdIKASUK-jV8swbsfsCr-1" target="QdIKASUK-jV8swbsfsCr-2">
          <mxGeometry relative="1" as="geometry" />
        </mxCell>
        <mxCell id="QdIKASUK-jV8swbsfsCr-1" value="&lt;span style=&quot;background-color: rgb(255, 255, 255);&quot;&gt;&lt;br&gt;DynamoDB Table&lt;/span&gt;" style="sketch=0;points=[[0,0,0],[0.25,0,0],[0.5,0,0],[0.75,0,0],[1,0,0],[0,1,0],[0.25,1,0],[0.5,1,0],[0.75,1,0],[1,1,0],[0,0.25,0],[0,0.5,0],[0,0.75,0],[1,0.25,0],[1,0.5,0],[1,0.75,0]];outlineConnect=0;fontColor=#232F3E;fillColor=#C925D1;strokeColor=#ffffff;dashed=0;verticalLabelPosition=bottom;verticalAlign=top;align=center;html=1;fontSize=12;fontStyle=0;aspect=fixed;shape=mxgraph.aws4.resourceIcon;resIcon=mxgraph.aws4.dynamodb;" vertex="1" parent="1">
          <mxGeometry x="270" y="330" width="78" height="78" as="geometry" />
        </mxCell>
        <mxCell id="QdIKASUK-jV8swbsfsCr-14" style="edgeStyle=orthogonalEdgeStyle;rounded=0;orthogonalLoop=1;jettySize=auto;html=1;" edge="1" parent="1" source="QdIKASUK-jV8swbsfsCr-2" target="QdIKASUK-jV8swbsfsCr-3">
          <mxGeometry relative="1" as="geometry" />
        </mxCell>
        <mxCell id="QdIKASUK-jV8swbsfsCr-2" value="&lt;br&gt;Cloudwatch Metric Alarm" style="sketch=0;points=[[0,0,0],[0.25,0,0],[0.5,0,0],[0.75,0,0],[1,0,0],[0,1,0],[0.25,1,0],[0.5,1,0],[0.75,1,0],[1,1,0],[0,0.25,0],[0,0.5,0],[0,0.75,0],[1,0.25,0],[1,0.5,0],[1,0.75,0]];points=[[0,0,0],[0.25,0,0],[0.5,0,0],[0.75,0,0],[1,0,0],[0,1,0],[0.25,1,0],[0.5,1,0],[0.75,1,0],[1,1,0],[0,0.25,0],[0,0.5,0],[0,0.75,0],[1,0.25,0],[1,0.5,0],[1,0.75,0]];outlineConnect=0;fontColor=#232F3E;fillColor=#E7157B;strokeColor=#ffffff;dashed=0;verticalLabelPosition=bottom;verticalAlign=top;align=center;html=1;fontSize=12;fontStyle=0;aspect=fixed;shape=mxgraph.aws4.resourceIcon;resIcon=mxgraph.aws4.cloudwatch_2;" vertex="1" parent="1">
          <mxGeometry x="580" y="470" width="78" height="78" as="geometry" />
        </mxCell>
        <mxCell id="QdIKASUK-jV8swbsfsCr-12" style="edgeStyle=orthogonalEdgeStyle;rounded=0;orthogonalLoop=1;jettySize=auto;html=1;" edge="1" parent="1" source="QdIKASUK-jV8swbsfsCr-3" target="QdIKASUK-jV8swbsfsCr-6">
          <mxGeometry relative="1" as="geometry" />
        </mxCell>
        <mxCell id="QdIKASUK-jV8swbsfsCr-3" value="&lt;span style=&quot;background-color: rgb(255, 255, 255);&quot;&gt;&lt;br&gt;Simple Notification &lt;br&gt;Service Topic&lt;/span&gt;" style="sketch=0;points=[[0,0,0],[0.25,0,0],[0.5,0,0],[0.75,0,0],[1,0,0],[0,1,0],[0.25,1,0],[0.5,1,0],[0.75,1,0],[1,1,0],[0,0.25,0],[0,0.5,0],[0,0.75,0],[1,0.25,0],[1,0.5,0],[1,0.75,0]];outlineConnect=0;fontColor=#232F3E;fillColor=#E7157B;strokeColor=#ffffff;dashed=0;verticalLabelPosition=bottom;verticalAlign=top;align=center;html=1;fontSize=12;fontStyle=0;aspect=fixed;shape=mxgraph.aws4.resourceIcon;resIcon=mxgraph.aws4.sns;" vertex="1" parent="1">
          <mxGeometry x="770" y="330" width="78" height="78" as="geometry" />
        </mxCell>
        <mxCell id="QdIKASUK-jV8swbsfsCr-11" style="edgeStyle=orthogonalEdgeStyle;rounded=0;orthogonalLoop=1;jettySize=auto;html=1;" edge="1" parent="1" source="QdIKASUK-jV8swbsfsCr-4" target="QdIKASUK-jV8swbsfsCr-3">
          <mxGeometry relative="1" as="geometry" />
        </mxCell>
        <mxCell id="QdIKASUK-jV8swbsfsCr-4" value="&lt;br&gt;Lambda Function" style="sketch=0;points=[[0,0,0],[0.25,0,0],[0.5,0,0],[0.75,0,0],[1,0,0],[0,1,0],[0.25,1,0],[0.5,1,0],[0.75,1,0],[1,1,0],[0,0.25,0],[0,0.5,0],[0,0.75,0],[1,0.25,0],[1,0.5,0],[1,0.75,0]];outlineConnect=0;fontColor=#232F3E;fillColor=#ED7100;strokeColor=#ffffff;dashed=0;verticalLabelPosition=bottom;verticalAlign=top;align=center;html=1;fontSize=12;fontStyle=0;aspect=fixed;shape=mxgraph.aws4.resourceIcon;resIcon=mxgraph.aws4.lambda;" vertex="1" parent="1">
          <mxGeometry x="580" y="330" width="78" height="78" as="geometry" />
        </mxCell>
        <mxCell id="QdIKASUK-jV8swbsfsCr-10" style="edgeStyle=orthogonalEdgeStyle;rounded=0;orthogonalLoop=1;jettySize=auto;html=1;" edge="1" parent="1" source="QdIKASUK-jV8swbsfsCr-5" target="QdIKASUK-jV8swbsfsCr-4">
          <mxGeometry relative="1" as="geometry" />
        </mxCell>
        <mxCell id="QdIKASUK-jV8swbsfsCr-5" value="&lt;br&gt;DynamoDB Stream" style="sketch=0;outlineConnect=0;fontColor=#232F3E;gradientColor=none;fillColor=#C925D1;strokeColor=none;dashed=0;verticalLabelPosition=bottom;verticalAlign=top;align=center;html=1;fontSize=12;fontStyle=0;aspect=fixed;pointerEvents=1;shape=mxgraph.aws4.dynamodb_stream;" vertex="1" parent="1">
          <mxGeometry x="440" y="340.5" width="58" height="58" as="geometry" />
        </mxCell>
        <mxCell id="QdIKASUK-jV8swbsfsCr-6" value="&lt;br&gt;Operator" style="sketch=0;pointerEvents=1;shadow=0;dashed=0;html=1;strokeColor=none;fillColor=#505050;labelPosition=center;verticalLabelPosition=bottom;verticalAlign=top;outlineConnect=0;align=center;shape=mxgraph.office.users.mail_user;" vertex="1" parent="1">
          <mxGeometry x="1010" y="339.5" width="58" height="59" as="geometry" />
        </mxCell>
        <mxCell id="QdIKASUK-jV8swbsfsCr-8" style="edgeStyle=orthogonalEdgeStyle;rounded=0;orthogonalLoop=1;jettySize=auto;html=1;" edge="1" parent="1" source="QdIKASUK-jV8swbsfsCr-7" target="QdIKASUK-jV8swbsfsCr-1">
          <mxGeometry relative="1" as="geometry" />
        </mxCell>
        <mxCell id="QdIKASUK-jV8swbsfsCr-7" value="&lt;br&gt;Application Server" style="outlineConnect=0;dashed=0;verticalLabelPosition=bottom;verticalAlign=top;align=center;html=1;shape=mxgraph.aws3.traditional_server;fillColor=#7D7C7C;gradientColor=none;" vertex="1" parent="1">
          <mxGeometry x="60" y="337.5" width="46.5" height="63" as="geometry" />
        </mxCell>
        <mxCell id="QdIKASUK-jV8swbsfsCr-16" style="rounded=0;orthogonalLoop=1;jettySize=auto;html=1;exitX=0.5;exitY=1;exitDx=0;exitDy=0;endArrow=none;endFill=0;dashed=1;" edge="1" parent="1" source="QdIKASUK-jV8swbsfsCr-15" target="QdIKASUK-jV8swbsfsCr-7">
          <mxGeometry relative="1" as="geometry">
            <mxPoint x="180" y="370" as="targetPoint" />
          </mxGeometry>
        </mxCell>
        <mxCell id="QdIKASUK-jV8swbsfsCr-15" value="Application send periodically statistics as json bundle via AWS CLI to table with an identifierattribute&amp;nbsp;&lt;br&gt;as &lt;b&gt;instance_name &lt;/b&gt;and &lt;b&gt;statistics &lt;/b&gt;as value attribute" style="rounded=0;whiteSpace=wrap;html=1;" vertex="1" parent="1">
          <mxGeometry x="60" y="110" width="210" height="90" as="geometry" />
        </mxCell>
        <mxCell id="QdIKASUK-jV8swbsfsCr-17" value="Has table named &lt;b&gt;services &lt;/b&gt;with partition key and index&amp;nbsp;on&amp;nbsp;&lt;b&gt;instance_name&lt;/b&gt; attribute" style="rounded=0;whiteSpace=wrap;html=1;" vertex="1" parent="1">
          <mxGeometry x="300" y="110" width="160" height="90" as="geometry" />
        </mxCell>
        <mxCell id="QdIKASUK-jV8swbsfsCr-18" style="rounded=0;orthogonalLoop=1;jettySize=auto;html=1;exitX=0.5;exitY=1;exitDx=0;exitDy=0;endArrow=none;endFill=0;dashed=1;" edge="1" parent="1" source="QdIKASUK-jV8swbsfsCr-17" target="QdIKASUK-jV8swbsfsCr-1">
          <mxGeometry relative="1" as="geometry">
            <mxPoint x="380" y="370" as="targetPoint" />
            <mxPoint x="440" y="200" as="sourcePoint" />
          </mxGeometry>
        </mxCell>
        <mxCell id="QdIKASUK-jV8swbsfsCr-19" value="The DynamoDB stream enabled with view type &quot;&lt;b&gt;New and old images&lt;/b&gt;&quot; to get old and new record in update event&lt;br&gt;&lt;div&gt;&lt;br&gt;&lt;/div&gt;" style="rounded=0;whiteSpace=wrap;html=1;" vertex="1" parent="1">
          <mxGeometry x="488" y="110" width="170" height="90" as="geometry" />
        </mxCell>
        <mxCell id="QdIKASUK-jV8swbsfsCr-20" style="rounded=0;orthogonalLoop=1;jettySize=auto;html=1;exitX=0.5;exitY=1;exitDx=0;exitDy=0;endArrow=none;endFill=0;dashed=1;" edge="1" parent="1" source="QdIKASUK-jV8swbsfsCr-19" target="QdIKASUK-jV8swbsfsCr-5">
          <mxGeometry relative="1" as="geometry">
            <mxPoint x="470" y="330" as="targetPoint" />
            <mxPoint x="592" y="200" as="sourcePoint" />
          </mxGeometry>
        </mxCell>
        <mxCell id="QdIKASUK-jV8swbsfsCr-21" value="Lambda function compares statistics attribute of old and new image and triggers SNS API on change of error statistics" style="rounded=0;whiteSpace=wrap;html=1;" vertex="1" parent="1">
          <mxGeometry x="688" y="110" width="160" height="90" as="geometry" />
        </mxCell>
        <mxCell id="QdIKASUK-jV8swbsfsCr-22" style="rounded=0;orthogonalLoop=1;jettySize=auto;html=1;exitX=0.5;exitY=1;exitDx=0;exitDy=0;endArrow=none;endFill=0;dashed=1;" edge="1" parent="1" source="QdIKASUK-jV8swbsfsCr-21" target="QdIKASUK-jV8swbsfsCr-4">
          <mxGeometry relative="1" as="geometry">
            <mxPoint x="480" y="350" as="targetPoint" />
            <mxPoint x="535" y="210" as="sourcePoint" />
          </mxGeometry>
        </mxCell>
        <mxCell id="QdIKASUK-jV8swbsfsCr-23" value="Alerts operator on errornous statistic or outage on missed heartbeat&amp;nbsp;" style="rounded=0;whiteSpace=wrap;html=1;" vertex="1" parent="1">
          <mxGeometry x="880" y="110" width="140" height="90" as="geometry" />
        </mxCell>
        <mxCell id="QdIKASUK-jV8swbsfsCr-25" style="rounded=0;orthogonalLoop=1;jettySize=auto;html=1;exitX=0.5;exitY=1;exitDx=0;exitDy=0;endArrow=none;endFill=0;dashed=1;" edge="1" parent="1" source="QdIKASUK-jV8swbsfsCr-23" target="QdIKASUK-jV8swbsfsCr-3">
          <mxGeometry relative="1" as="geometry">
            <mxPoint x="650" y="340" as="targetPoint" />
            <mxPoint x="710" y="230" as="sourcePoint" />
          </mxGeometry>
        </mxCell>
        <mxCell id="QdIKASUK-jV8swbsfsCr-26" value="Has alarm setup for &lt;b&gt;SuccessfulRequestLatency &amp;lt;= 0 for 1 datapoints within 5 minutes&lt;/b&gt; on table &lt;b&gt;services&lt;/b&gt;&lt;br&gt;&lt;div&gt;&lt;br&gt;&lt;/div&gt;" style="rounded=0;whiteSpace=wrap;html=1;" vertex="1" parent="1">
          <mxGeometry x="290" y="530" width="180" height="90" as="geometry" />
        </mxCell>
        <mxCell id="QdIKASUK-jV8swbsfsCr-27" style="rounded=0;orthogonalLoop=1;jettySize=auto;html=1;endArrow=none;endFill=0;dashed=1;entryX=1;entryY=0.5;entryDx=0;entryDy=0;" edge="1" parent="1" source="QdIKASUK-jV8swbsfsCr-2" target="QdIKASUK-jV8swbsfsCr-26">
          <mxGeometry relative="1" as="geometry">
            <mxPoint x="839" y="340" as="targetPoint" />
            <mxPoint x="918" y="190" as="sourcePoint" />
          </mxGeometry>
        </mxCell>
      </root>
    </mxGraphModel>
  </diagram>
</mxfile>
